<?xml version="1.0" encoding="UTF-8" standalone="no"?>
<!-- Created with Inkscape (http://www.inkscape.org/) -->

<svg
   xmlns:dc="http://purl.org/dc/elements/1.1/"
   xmlns:cc="http://creativecommons.org/ns#"
   xmlns:rdf="http://www.w3.org/1999/02/22-rdf-syntax-ns#"
   xmlns:svg="http://www.w3.org/2000/svg"
   xmlns="http://www.w3.org/2000/svg"
   xmlns:sodipodi="http://sodipodi.sourceforge.net/DTD/sodipodi-0.dtd"
   xmlns:inkscape="http://www.inkscape.org/namespaces/inkscape"
   id="svg4279"
   version="1.1"
   inkscape:version="0.91 r13725"
   width="1956"
   height="1363"
   viewBox="0 0 1956 1363"
   sodipodi:docname="HereToCareerLogo_bluegrey.svg"
   inkscape:export-filename="/home/tobias/Projects/ginkgo/interestprofiler/ember-profiler/public/img/logo.png"
   inkscape:export-xdpi="815.28998"
   inkscape:export-ydpi="815.28998">
  <metadata
     id="metadata4285">
    <rdf:RDF>
      <cc:Work
         rdf:about="">
        <dc:format>image/svg+xml</dc:format>
        <dc:type
           rdf:resource="http://purl.org/dc/dcmitype/StillImage" />
        <dc:title></dc:title>
      </cc:Work>
    </rdf:RDF>
  </metadata>
  <defs
     id="defs4283" />
  <sodipodi:namedview
     pagecolor="#153672"
     bordercolor="#666666"
     borderopacity="1"
     objecttolerance="10"
     gridtolerance="10"
     guidetolerance="10"
     inkscape:pageopacity="0"
     inkscape:pageshadow="2"
     inkscape:window-width="1855"
     inkscape:window-height="1056"
     id="namedview4281"
     showgrid="false"
     fit-margin-top="0"
     fit-margin-left="0"
     fit-margin-right="0"
     fit-margin-bottom="0"
     inkscape:zoom="0.26670259"
     inkscape:cx="905.79706"
     inkscape:cy="618.3206"
     inkscape:window-x="65"
     inkscape:window-y="24"
     inkscape:window-maximized="1"
     inkscape:current-layer="layer2" />
  <g
     inkscape:groupmode="layer"
     id="layer2"
     inkscape:label="Logo"
     transform="translate(-24.634779,1198.0163)"
     style="display:inline">
    <g
       id="g5251"
       transform="matrix(9.0495519,0,0,9.0608542,-198.29892,-1329.9091)">
      <g
         id="g4829"
         transform="matrix(1.440743,0,0,-1.4424512,79.152307,116.65927)">
        <path
           inkscape:connector-curvature="0"
           id="path14"
           style="fill:#ffffff;fill-opacity:1;fill-rule:nonzero;stroke:none"
           d="m 73.4789,47.3449 c 1.1211,-1.2297 0.9223,-1.8476 0.5902,-2.891 L 60.8609,3.73086 c -0.3011,-0.95938 -0.95,-1.74531 -2.714,-1.74531 l -7.8754,0 c -2.3199,0 -3.2985,1.66133 -2.1742,3.68945 l 21.2636,38.1141 c 0.5653,1.0187 0.8633,2.0839 -0.5031,3.1242 L 43.2094,66.4629 c -1.8262,1.3539 -1.7766,2.9316 0.1894,3.3289 l 5.7047,0.9598 C 49.8488,70.8945 50.877,70.5559 51.3926,70 L 73.4789,47.3449" />
        <path
           inkscape:connector-curvature="0"
           id="path16"
           style="fill:#c8cddb;fill-opacity:1;fill-rule:nonzero;stroke:none"
           d="m 41.2684,1.98555 -6.8508,0 c -2.8356,0 -3.7113,1.81679 -1.9442,4.03398 L 61.352,40.9723 c 1.9531,2.3914 1.4593,3.5312 0.0031,4.3015 L 27.4395,63.3695 c -2.7829,1.4285 -2.0407,3.2207 0,3.6055 l 8.2855,1.4227 c 0.1117,0.0214 0.2336,0.0316 0.3605,0.0316 0.5661,0 1.2379,-0.2043 1.6364,-0.5164 L 66.1188,46.3328 c 1.3914,-1.1117 1.5312,-1.5996 0.3167,-3.6832 L 44.1656,3.74023 C 43.7777,3.02578 42.973,1.98555 41.2684,1.98555" />
        <path
           inkscape:connector-curvature="0"
           id="path18"
           style="fill:#919cb7;fill-opacity:1;fill-rule:nonzero;stroke:none"
           d="m 23.6754,1.98555 -14.63009,0 c -4.08398,0 -4.75781,2.0125 -1.49687,4.46875 L 53.4699,39.7055 c 2.1989,1.655 1.9906,3.2453 -0.6551,3.9937 L 2.51758,58.9039 c -2.773439,0.8883 -2.695705,3.1863 -0.08399,3.6895 L 16.6164,65.093 c 0.4441,0.0668 0.843,0.0965 1.2066,0.0965 1.0786,0 1.8461,-0.2625 2.5543,-0.6086 L 58.4109,44.4848 c 1.9254,-1.0371 1.0278,-2.2981 0.009,-3.5868 L 27.2344,3.74023 C 26.8242,3.22148 25.7688,1.98555 23.6754,1.98555" />
        <path
           inkscape:connector-curvature="0"
           id="path20"
           style="fill:#efad15;fill-opacity:1;fill-rule:nonzero;stroke:none"
           d="m 44.4281,42.6219 c 2.7203,-0.8 3.0481,-2.7906 0.7239,-4.4192 L 10.2121,13.7125 C 4.81172,9.93008 3.21719,11.4293 6.66758,17.0484 l 12.16332,17.843 c 0.6168,1.0031 0.9859,1.8082 -0.0821,2.8133 L 3.14805,49.8184 c -4.97618,4.1945 -3.938675,6.1218 2.3039,4.2839 L 44.4281,42.6219" />
      </g>
      <g
         transform="matrix(0.57312601,0,0,-0.54271182,-27.322247,163.84598)"
         id="g4864">
        <path
           inkscape:connector-curvature="0"
           id="path22"
           style="fill:#ffffff;fill-opacity:1;fill-rule:nonzero;stroke:none"
           d="m 100.799,64.6715 0,-16.6027 16.029,0 0,16.6027 9.705,0 0,-43.0387 -9.705,0 0,17.9434 -16.029,0 0,-17.9434 -9.7052,0 0,43.0387 9.7052,0" />
        <path
           inkscape:connector-curvature="0"
           id="path24"
           style="fill:#ffffff;fill-opacity:1;fill-rule:nonzero;stroke:none"
           d="m 151.4,40.7895 c 0,2.3628 -1.022,6.3214 -5.428,6.3214 -4.151,0 -5.811,-3.7671 -6.066,-6.3214 l 11.494,0 z m -11.43,-6.6407 c 0.319,-4.023 4.278,-5.9386 8.811,-5.9386 3.321,0 6.003,0.4468 8.621,1.3406 l 1.277,-6.5766 c -3.193,-1.3414 -7.088,-1.9797 -11.302,-1.9797 -10.6,0 -16.666,6.1301 -16.666,15.8996 0,7.918 4.98,16.6664 15.771,16.6664 10.09,0 13.921,-7.8542 13.921,-15.5804 0,-1.6602 -0.191,-3.1293 -0.319,-3.8313 l -20.114,0" />
        <path
           inkscape:connector-curvature="0"
           id="path26"
           style="fill:#ffffff;fill-opacity:1;fill-rule:nonzero;stroke:none"
           d="m 164.14,42.5777 c 0,4.5973 -0.064,7.5985 -0.256,10.2801 l 8.302,0 0.383,-5.8105 0.255,0 c 1.597,4.5976 5.364,6.5132 8.429,6.5132 0.894,0 1.341,-0.0636 2.043,-0.1914 l 0,-9.1312 c -0.766,0.1277 -1.532,0.2555 -2.618,0.2555 -3.576,0 -6.002,-1.8524 -6.64,-4.9172 -0.128,-0.6383 -0.192,-1.3407 -0.192,-2.1707 l 0,-15.7727 -9.706,0 0,20.9449" />
        <path
           inkscape:connector-curvature="0"
           id="path28"
           style="fill:#ffffff;fill-opacity:1;fill-rule:nonzero;stroke:none"
           d="m 204.912,40.7895 c 0,2.3628 -1.022,6.3214 -5.428,6.3214 -4.151,0 -5.811,-3.7671 -6.066,-6.3214 l 11.494,0 z m -11.43,-6.6407 c 0.319,-4.023 4.278,-5.9386 8.811,-5.9386 3.321,0 6.003,0.4468 8.621,1.3406 l 1.277,-6.5766 c -3.192,-1.3414 -7.087,-1.9797 -11.302,-1.9797 -10.6,0 -16.666,6.1301 -16.666,15.8996 0,7.918 4.98,16.6664 15.771,16.6664 10.09,0 13.921,-7.8542 13.921,-15.5804 0,-1.6602 -0.191,-3.1293 -0.319,-3.8313 l -20.114,0" />
        <path
           inkscape:connector-curvature="0"
           id="path30"
           style="fill:#efad15;fill-opacity:1;fill-rule:nonzero;stroke:none"
           d="m 240.289,61.3508 0,-8.493 6.96,0 0,-7.1515 -6.96,0 0,-11.302 c 0,-3.768 0.958,-5.4918 3.831,-5.4918 1.341,0 1.98,0.0641 2.874,0.2555 l 0.064,-7.3434 c -1.214,-0.4473 -3.577,-0.8301 -6.258,-0.8301 -3.129,0 -5.747,1.0856 -7.344,2.6817 -1.788,1.8519 -2.681,4.8531 -2.681,9.2593 l 0,12.7708 -4.151,0 0,7.1515 4.151,0 0,5.875 9.514,2.618" />
        <path
           inkscape:connector-curvature="0"
           id="path32"
           style="fill:#efad15;fill-opacity:1;fill-rule:nonzero;stroke:none"
           d="m 265.039,27.8906 c 3.831,0 6.194,3.7676 6.194,9.3871 0,4.5973 -1.788,9.3231 -6.194,9.3231 -4.598,0 -6.385,-4.7258 -6.385,-9.3871 0,-5.3 2.234,-9.3231 6.321,-9.3231 l 0.064,0 z m -0.255,-6.9597 c -9.132,0 -16.156,6.0019 -16.156,16.0914 0,10.0886 6.641,16.5382 16.731,16.5382 9.514,0 15.899,-6.5769 15.899,-16.0281 0,-11.3656 -8.109,-16.6015 -16.41,-16.6015 l -0.064,0" />
        <path
           inkscape:connector-curvature="0"
           id="path34"
           style="fill:#ffffff;fill-opacity:1;fill-rule:nonzero;stroke:none"
           d="m 328.832,22.8465 c -1.724,-0.8301 -5.811,-1.852 -10.983,-1.852 -14.879,0 -22.541,9.3231 -22.541,21.5832 0,14.6227 10.472,22.7321 23.499,22.7321 5.044,0 8.875,-1.0219 10.599,-1.8516 l -2.043,-7.7262 c -1.916,0.8297 -4.661,1.5961 -8.173,1.5961 -7.663,0 -13.665,-4.6613 -13.665,-14.2398 0,-8.5567 5.108,-13.984 13.728,-13.984 3.002,0 6.194,0.5742 8.174,1.4043 l 1.405,-7.6621" />
        <path
           inkscape:connector-curvature="0"
           id="path36"
           style="fill:#ffffff;fill-opacity:1;fill-rule:nonzero;stroke:none"
           d="m 348.857,36.384 c -5.108,0 -9.067,-1.2137 -9.067,-4.9176 0,-2.4898 1.66,-3.7035 3.831,-3.7035 2.363,0 4.406,1.5965 5.045,3.5758 0.127,0.5113 0.191,1.0855 0.191,1.6605 l 0,3.3848 z m 9.387,-7.216 c 0,-2.9371 0.128,-5.811 0.511,-7.5352 l -8.748,0 -0.575,3.1289 -0.192,0 c -2.043,-2.4902 -5.235,-3.8308 -8.939,-3.8308 -6.322,0 -10.09,4.5972 -10.09,9.5777 0,8.1098 7.28,11.9414 18.328,11.9414 l 0,0.3828 c 0,1.6606 -0.895,4.0227 -5.685,4.0227 -3.192,0 -6.576,-1.0856 -8.62,-2.2985 l -1.788,6.1942 c 2.171,1.2129 6.45,2.8093 12.134,2.8093 10.407,0 13.664,-6.13 13.664,-13.4734 l 0,-10.9191" />
        <path
           inkscape:connector-curvature="0"
           id="path38"
           style="fill:#ffffff;fill-opacity:1;fill-rule:nonzero;stroke:none"
           d="m 363.437,42.5777 c 0,4.5973 -0.064,7.5985 -0.255,10.2801 l 8.301,0 0.383,-5.8105 0.256,0 c 1.596,4.5976 5.363,6.5132 8.429,6.5132 0.893,0 1.34,-0.0636 2.043,-0.1914 l 0,-9.1312 c -0.766,0.1277 -1.533,0.2555 -2.618,0.2555 -3.576,0 -6.002,-1.8524 -6.641,-4.9172 -0.128,-0.6383 -0.192,-1.3407 -0.192,-2.1707 l 0,-15.7727 -9.706,0 0,20.9449" />
        <path
           inkscape:connector-curvature="0"
           id="path40"
           style="fill:#ffffff;fill-opacity:1;fill-rule:nonzero;stroke:none"
           d="m 404.209,40.7895 c 0,2.3628 -1.023,6.3214 -5.429,6.3214 -4.149,0 -5.81,-3.7671 -6.066,-6.3214 l 11.495,0 z m -11.431,-6.6407 c 0.32,-4.023 4.278,-5.9386 8.812,-5.9386 3.322,0 6.003,0.4468 8.621,1.3406 l 1.277,-6.5766 c -3.192,-1.3414 -7.088,-1.9797 -11.302,-1.9797 -10.6,0 -16.666,6.1301 -16.666,15.8996 0,7.918 4.981,16.6664 15.772,16.6664 10.088,0 13.92,-7.8542 13.92,-15.5804 0,-1.6602 -0.191,-3.1293 -0.319,-3.8313 l -20.115,0" />
        <path
           inkscape:connector-curvature="0"
           id="path42"
           style="fill:#ffffff;fill-opacity:1;fill-rule:nonzero;stroke:none"
           d="m 435.889,40.7895 c 0,2.3628 -1.023,6.3214 -5.428,6.3214 -4.15,0 -5.811,-3.7671 -6.067,-6.3214 l 11.495,0 z m -11.431,-6.6407 c 0.319,-4.023 4.278,-5.9386 8.812,-5.9386 3.32,0 6.003,0.4468 8.621,1.3406 l 1.277,-6.5766 c -3.193,-1.3414 -7.088,-1.9797 -11.302,-1.9797 -10.6,0 -16.667,6.1301 -16.667,15.8996 0,7.918 4.982,16.6664 15.772,16.6664 10.089,0 13.921,-7.8542 13.921,-15.5804 0,-1.6602 -0.191,-3.1293 -0.319,-3.8313 l -20.115,0" />
        <path
           inkscape:connector-curvature="0"
           id="path44"
           style="fill:#ffffff;fill-opacity:1;fill-rule:nonzero;stroke:none"
           d="m 448.629,42.5777 c 0,4.5973 -0.064,7.5985 -0.255,10.2801 l 8.301,0 0.383,-5.8105 0.256,0 c 1.596,4.5976 5.363,6.5132 8.429,6.5132 0.893,0 1.34,-0.0636 2.043,-0.1914 l 0,-9.1312 c -0.766,0.1277 -1.533,0.2555 -2.618,0.2555 -3.576,0 -6.002,-1.8524 -6.641,-4.9172 -0.128,-0.6383 -0.192,-1.3407 -0.192,-2.1707 l 0,-15.7727 -9.706,0 0,20.9449" />
      </g>
      <g
         style="fill:#ffffff;fill-opacity:0.39215686"
         transform="matrix(0.8727547,0,0,-0.75491814,-54.485236,164.98365)"
         id="g4878">
        <path
           inkscape:connector-curvature="0"
           id="path46"
           style="fill:#ffffff;fill-opacity:0.39215686;fill-rule:nonzero;stroke:none"
           d="m 91.9863,3.19922 -1.3308,0 0,7.25508 c 0.491,0.0879 1.1566,0.1531 2.0511,0.1531 0.9821,0 1.6911,-0.2078 2.1602,-0.6008 0.4363,-0.35933 0.7199,-0.93824 0.7199,-1.62457 0,-0.69844 -0.2179,-1.26601 -0.6219,-1.6582 -0.5453,-0.53516 -1.3746,-0.79688 -2.3238,-0.79688 -0.2508,0 -0.4691,0.01055 -0.6547,0.05469 l 0,-2.78242 m 0.775,6.37109 c -0.3711,0 -0.6328,-0.03203 -0.775,-0.06562 l 0,-2.46563 c 0.1746,-0.05351 0.3821,-0.06523 0.6547,-0.06523 1.0039,0 1.6149,0.50195 1.6149,1.35351 0,0.80743 -0.5672,1.24297 -1.4946,1.24297" />
        <path
           inkscape:connector-curvature="0"
           id="path48"
           style="fill:#ffffff;fill-opacity:0.39215686;fill-rule:nonzero;stroke:none"
           d="m 100.864,3.0793 -0.011,0 c -2.0839,0 -3.3932,1.59258 -3.3932,3.74179 0,2.24727 1.4289,3.85161 3.5022,3.85161 2.138,0 3.404,-1.62582 3.404,-3.72075 0,-2.46562 -1.495,-3.87265 -3.502,-3.87265 m 0.054,6.51367 c -1.3418,0 -2.0399,-1.27656 -2.0399,-2.73828 0,-1.46211 0.7414,-2.69531 2.0289,-2.69531 l 0.011,0 c 1.298,0 2.029,1.2 2.029,2.73828 0,1.38554 -0.687,2.69531 -2.029,2.69531" />
        <path
           inkscape:connector-curvature="0"
           id="path50"
           style="fill:#ffffff;fill-opacity:0.39215686;fill-rule:nonzero;stroke:none"
           d="m 113.209,3.19922 -1.43,0 -0.763,3.46992 c -0.186,0.82891 -0.317,1.52734 -0.415,2.32305 l -0.021,0 c -0.12,-0.78516 -0.262,-1.49414 -0.481,-2.33477 l -0.85,-3.4582 -1.451,0 -1.801,7.35348 1.429,0 0.699,-3.33864 c 0.185,-0.89492 0.36,-1.8332 0.48,-2.56367 l 0.022,0 c 0.12,0.77461 0.327,1.64766 0.534,2.58594 l 0.797,3.31637 1.407,0 0.731,-3.38161 c 0.175,-0.87304 0.338,-1.69179 0.447,-2.48867 l 0.022,0 c 0.131,0.81875 0.306,1.64766 0.502,2.55391 l 0.764,3.31637 1.363,0 -1.985,-7.35348" />
        <path
           inkscape:connector-curvature="0"
           id="path52"
           style="fill:#ffffff;fill-opacity:0.39215686;fill-rule:nonzero;stroke:none"
           d="m 121.615,3.19922 -4.441,0 0,7.35348 4.277,0 0,-1.1027 -2.934,0 0,-1.89727 2.771,0 0,-1.09179 -2.771,0 0,-2.16016 3.098,0 0,-1.10156" />
        <path
           inkscape:connector-curvature="0"
           id="path54"
           style="fill:#ffffff;fill-opacity:0.39215686;fill-rule:nonzero;stroke:none"
           d="m 129.074,3.19922 -1.375,0 c -0.109,0.21797 -0.295,0.81836 -0.491,1.73437 -0.218,0.95977 -0.556,1.26563 -1.32,1.28789 l -0.677,0 0,-3.02226 -1.331,0 0,7.24418 c 0.514,0.0988 1.255,0.164 2.03,0.164 1.058,0 1.767,-0.175 2.269,-0.5898 0.404,-0.33791 0.633,-0.85041 0.633,-1.48362 0,-0.94882 -0.644,-1.59257 -1.342,-1.83281 l 0,-0.03203 c 0.535,-0.19648 0.851,-0.71016 1.026,-1.41914 0.24,-0.91602 0.436,-1.76758 0.578,-2.05078 m -3.033,6.39375 c -0.426,0 -0.699,-0.0332 -0.83,-0.06563 l 0,-2.32421 0.797,0 c 0.906,0 1.462,0.48046 1.462,1.21093 0,0.79688 -0.556,1.17891 -1.429,1.17891" />
        <path
           inkscape:connector-curvature="0"
           id="path56"
           style="fill:#ffffff;fill-opacity:0.39215686;fill-rule:nonzero;stroke:none"
           d="m 135.616,3.19922 -4.441,0 0,7.35348 4.277,0 0,-1.1027 -2.934,0 0,-1.89727 2.771,0 0,-1.09179 -2.771,0 0,-2.16016 3.098,0 0,-1.10156" />
        <path
           inkscape:connector-curvature="0"
           id="path58"
           style="fill:#ffffff;fill-opacity:0.39215686;fill-rule:nonzero;stroke:none"
           d="m 139.692,3.12305 c -0.774,0 -1.363,0.04297 -1.811,0.09765 l 0,7.2227 c 0.6,0.0988 1.343,0.164 2.139,0.164 1.375,0 2.313,-0.284 2.989,-0.85154 0.721,-0.57813 1.157,-1.46211 1.157,-2.70508 0,-1.32031 -0.448,-2.29101 -1.146,-2.92383 -0.731,-0.66601 -1.898,-1.0039 -3.328,-1.0039 m 0.448,6.43672 c -0.426,0 -0.72,-0.03243 -0.916,-0.07618 l 0,-5.26953 c 0.185,-0.0332 0.468,-0.0332 0.741,-0.0332 0.01,0 0.02,-3.9e-4 0.029,-3.9e-4 1.729,0 2.754,0.97109 2.754,2.82617 0.01,1.61445 -0.928,2.55313 -2.608,2.55313" />
        <path
           inkscape:connector-curvature="0"
           id="path60"
           style="fill:#ffffff;fill-opacity:0.39215686;fill-rule:nonzero;stroke:none"
           d="m 151.414,3.12305 c -0.741,0 -1.298,0.05468 -1.647,0.09765 l 0,7.2227 c 0.425,0.0879 1.2,0.164 1.964,0.164 0.981,0 1.604,-0.1308 2.094,-0.4699 0.459,-0.27227 0.764,-0.75273 0.764,-1.38555 0,-0.67578 -0.425,-1.28711 -1.222,-1.58086 l 0,-0.03359 c 0.775,-0.19609 1.484,-0.80742 1.484,-1.81016 0,-0.65546 -0.284,-1.16796 -0.698,-1.51679 -0.524,-0.45899 -1.386,-0.6875 -2.739,-0.6875 m -0.316,3.44726 0,-2.40039 c 0.175,-0.03242 0.404,-0.03242 0.709,-0.03242 0.862,0 1.636,0.3168 1.636,1.23281 0,0.85117 -0.752,1.2 -1.68,1.2 l -0.665,0 m 0.763,3.04414 c -0.392,0 -0.621,-0.02148 -0.763,-0.05468 l 0,-2.01875 0.687,0 c 0.939,0 1.451,0.43632 1.451,1.05859 0,0.69844 -0.524,1.01484 -1.375,1.01484" />
        <path
           inkscape:connector-curvature="0"
           id="path62"
           style="fill:#ffffff;fill-opacity:0.39215686;fill-rule:nonzero;stroke:none"
           d="m 159.877,3.19922 -1.342,0 0,3.06523 -2.324,4.28825 1.538,0 0.873,-1.88786 c 0.251,-0.54453 0.437,-0.95976 0.644,-1.46171 l 0.022,0 c 0.174,0.46875 0.381,0.92773 0.632,1.46171 l 0.884,1.88786 1.516,0 -2.443,-4.25465 0,-3.09883" />
        <path
           inkscape:connector-curvature="0"
           id="path64"
           style="fill:#ffffff;fill-opacity:0.39215686;fill-rule:nonzero;stroke:none"
           d="m 169.718,3.05352 c -1.047,0 -2.123,0.29101 -2.661,0.61054 l 0.407,1.48321 c 0.567,-0.3336 1.454,-0.625 2.37,-0.625 1.134,0 1.775,0.53828 1.775,1.33828 0,0.74101 -0.495,1.17773 -1.731,1.6289 -1.629,0.56602 -2.661,1.43946 -2.661,2.83475 0,1.6145 1.338,2.8215 3.475,2.8215 1.061,0 1.832,-0.2328 2.341,-0.4797 l -0.422,-1.4539 c -0.363,0.1883 -1.046,0.4649 -1.963,0.4649 -1.134,0 -1.614,-0.5961 -1.614,-1.1782 0,-0.75583 0.568,-1.10505 1.876,-1.59919 1.701,-0.6543 2.516,-1.51289 2.516,-2.9082 0,-1.58516 -1.193,-2.93789 -3.708,-2.93789" />
        <path
           inkscape:connector-curvature="0"
           id="path66"
           style="fill:#ffffff;fill-opacity:0.39215686;fill-rule:nonzero;stroke:none"
           d="m 176.784,3.03906 c -1.426,0 -2.225,1.03203 -2.225,2.10821 0,1.76054 1.56,2.67617 4.141,2.67617 0.021,0 0.041,0 0.061,0 l 0,0.11601 c 0,0.46602 -0.189,1.23633 -1.44,1.23633 -0.697,0 -1.424,-0.21758 -1.904,-0.52344 l -0.35,1.16329 c 0.524,0.32027 1.44,0.62577 2.56,0.62577 2.269,0 2.923,-1.44023 2.923,-2.99609 l 0,-2.54492 c 0,-0.63984 0.029,-1.26484 0.116,-1.70117 l -1.614,0 -0.131,0.78516 -0.044,0 c -0.421,-0.55274 -1.163,-0.94532 -2.093,-0.94532 m 1.923,3.62188 c -1.229,0 -2.374,-0.27578 -2.374,-1.32422 0,-0.69805 0.451,-1.01719 1.018,-1.01719 0.727,0 1.235,0.46485 1.41,0.97344 0.044,0.13086 0.044,0.26172 0.044,0.39258 l 0,0.97461 c -0.033,3.9e-4 -0.066,7.8e-4 -0.098,7.8e-4" />
        <path
           inkscape:connector-curvature="0"
           id="path68"
           style="fill:#ffffff;fill-opacity:0.39215686;fill-rule:nonzero;stroke:none"
           d="m 182.439,3.19922 1.78906,0 0,10.3387 -1.78906,0 0,-10.3387 z" />
        <path
           inkscape:connector-curvature="0"
           id="path70"
           style="fill:#ffffff;fill-opacity:0.39215686;fill-rule:nonzero;stroke:none"
           d="m 187.906,3.03906 c -1.425,0 -2.225,1.03203 -2.225,2.10821 0,1.76054 1.56,2.67617 4.141,2.67617 0.021,0 0.041,0 0.061,0 l 0,0.11601 c 0,0.46602 -0.189,1.23633 -1.44,1.23633 -0.697,0 -1.424,-0.21758 -1.904,-0.52344 l -0.349,1.16329 c 0.523,0.32027 1.439,0.62577 2.559,0.62577 2.269,0 2.923,-1.44023 2.923,-2.99609 l 0,-2.54492 c 0,-0.63984 0.029,-1.26484 0.116,-1.70117 l -1.614,0 -0.131,0.78516 -0.043,0 c -0.422,-0.55274 -1.164,-0.94532 -2.094,-0.94532 m 1.923,3.62188 c -1.229,0 -2.374,-0.27578 -2.374,-1.32422 0,-0.69805 0.451,-1.01719 1.018,-1.01719 0.727,0 1.236,0.46485 1.41,0.97344 0.044,0.13086 0.044,0.26172 0.044,0.39258 l 0,0.97461 c -0.033,3.9e-4 -0.066,7.8e-4 -0.098,7.8e-4" />
        <path
           inkscape:connector-curvature="0"
           id="path72"
           style="fill:#ffffff;fill-opacity:0.39215686;fill-rule:nonzero;stroke:none"
           d="m 195.35,3.19922 -1.789,0 0,4.79883 c 0,0.96015 -0.015,1.65742 -0.058,2.28325 l 1.541,0 0.073,-1.33794 0.043,0 c 0.349,0.98828 1.178,1.49804 1.949,1.49804 0.175,0 0.276,-0.0144 0.422,-0.0437 l 0,-1.67309 c -0.16,0.0293 -0.32,0.04414 -0.538,0.04414 -0.844,0 -1.44,-0.53828 -1.6,-1.35273 -0.029,-0.16016 -0.043,-0.34844 -0.043,-0.53789 l 0,-3.67891" />
        <path
           inkscape:connector-curvature="0"
           id="path74"
           style="fill:#ffffff;fill-opacity:0.39215686;fill-rule:nonzero;stroke:none"
           d="m 199.188,0 -0.408,1.49805 c 0.306,0.07226 0.669,0.23242 1.033,0.49414 0.334,0.21797 0.741,0.63984 0.988,1.12031 0.058,0.13086 0.102,0.23203 0.102,0.31914 0,0.07344 -0.014,0.17461 -0.087,0.34961 l -2.603,6.50005 1.978,0 1.265,-3.79575 c 0.145,-0.43555 0.305,-0.97383 0.407,-1.36641 l 0.044,0 C 202.008,5.51172 202.139,6.05 202.285,6.5 l 1.105,3.7813 1.905,0 -1.774,-4.82817 C 202.546,2.80664 201.892,1.62891 201.063,0.901172 200.351,0.291016 199.624,0.0585938 199.188,0" />
        <path
           inkscape:connector-curvature="0"
           id="path76"
           style="fill:#ffffff;fill-opacity:0.39215686;fill-rule:nonzero;stroke:none"
           d="m 211.633,3.05352 c -1.047,0 -2.123,0.29101 -2.661,0.61054 l 0.407,1.48321 c 0.567,-0.3336 1.454,-0.625 2.37,-0.625 1.134,0 1.774,0.53828 1.774,1.33828 0,0.74101 -0.494,1.17773 -1.73,1.6289 -1.629,0.56602 -2.661,1.43946 -2.661,2.83475 0,1.6145 1.338,2.8215 3.475,2.8215 1.062,0 1.833,-0.2328 2.341,-0.4797 l -0.422,-1.4539 c -0.363,0.1883 -1.046,0.4649 -1.962,0.4649 -1.135,0 -1.615,-0.5961 -1.615,-1.1782 0,-0.75583 0.568,-1.10505 1.876,-1.59919 1.701,-0.6543 2.516,-1.51289 2.516,-2.9082 0,-1.58516 -1.193,-2.93789 -3.708,-2.93789" />
        <path
           inkscape:connector-curvature="0"
           id="path78"
           style="fill:#ffffff;fill-opacity:0.39215686;fill-rule:nonzero;stroke:none"
           d="m 219.31,3.03906 c -1.28,0 -2.458,0.77071 -2.458,3.08321 l 0,4.15903 1.789,0 0,-3.85357 c 0,-1.17773 0.378,-1.93437 1.323,-1.93437 0.727,0 1.192,0.49492 1.367,0.95977 0.073,0.14531 0.102,0.34882 0.102,0.55273 l 0,4.27544 1.788,0 0,-4.95903 c 0,-0.84375 0.03,-1.54102 0.058,-2.12305 l -1.555,0 -0.088,1.06133 -0.043,0 C 221.287,3.76641 220.589,3.03906 219.31,3.03906" />
        <path
           inkscape:connector-curvature="0"
           id="path80"
           style="fill:#ffffff;fill-opacity:0.39215686;fill-rule:nonzero;stroke:none"
           d="m 226.942,3.19922 -1.788,0 0,4.79883 c 0,0.96015 -0.015,1.65742 -0.059,2.28325 l 1.542,0 0.073,-1.33794 0.043,0 c 0.349,0.98828 1.178,1.49804 1.949,1.49804 0.175,0 0.276,-0.0144 0.422,-0.0437 l 0,-1.67309 c -0.161,0.0293 -0.32,0.04414 -0.539,0.04414 -0.843,0 -1.439,-0.53828 -1.599,-1.35273 -0.029,-0.16016 -0.044,-0.34844 -0.044,-0.53789 l 0,-3.67891" />
        <path
           inkscape:connector-curvature="0"
           id="path82"
           style="fill:#ffffff;fill-opacity:0.39215686;fill-rule:nonzero;stroke:none"
           d="m 232.729,3.19922 -1.789,0 0,5.74414 -0.96,0 0,1.33794 0.96,0 0,0.3046 c 0,0.9172 0.247,1.8332 0.858,2.4141 0.523,0.4953 1.236,0.6836 1.847,0.6836 0.48,0 0.857,-0.0867 1.133,-0.1746 l -0.116,-1.3809 c -0.203,0.0723 -0.436,0.1309 -0.77,0.1309 -0.887,0 -1.178,-0.7422 -1.178,-1.6145 l 0,-0.3632 1.556,0 0,-1.33794 -1.541,0 0,-5.74414" />
        <path
           inkscape:connector-curvature="0"
           id="path84"
           style="fill:#ffffff;fill-opacity:0.39215686;fill-rule:nonzero;stroke:none"
           d="m 238.413,3.05352 c -2.298,0 -3.649,1.41054 -3.649,3.57734 0,1.96289 1.192,3.81054 3.461,3.81054 2.297,0 3.053,-1.89062 3.053,-3.44726 0,-0.33398 -0.029,-0.5957 -0.058,-0.75586 l -4.74,0 c 0.043,-1.2793 1.046,-1.83203 2.18,-1.83203 0.829,0 1.411,0.13086 1.964,0.32031 l 0.262,-1.22148 c -0.612,-0.26172 -1.454,-0.45156 -2.473,-0.45156 m -0.291,6.1664 c -1.104,0 -1.57,-1.00429 -1.642,-1.73047 l 3.111,0 c 0.015,0.6543 -0.276,1.73047 -1.469,1.73047" />
        <path
           inkscape:connector-curvature="0"
           id="path86"
           style="fill:#ffffff;fill-opacity:0.39215686;fill-rule:nonzero;stroke:none"
           d="m 244.505,3.19922 -1.788,0 0,4.79883 c 0,0.96015 -0.015,1.65742 -0.059,2.28325 l 1.542,0 0.073,-1.33794 0.043,0 c 0.349,0.98828 1.178,1.49804 1.949,1.49804 0.175,0 0.276,-0.0144 0.422,-0.0437 l 0,-1.67309 c -0.161,0.0293 -0.321,0.04414 -0.539,0.04414 -0.843,0 -1.439,-0.53828 -1.599,-1.35273 -0.029,-0.16016 -0.044,-0.34844 -0.044,-0.53789 l 0,-3.67891" />
      </g>
    </g>
  </g>
</svg>
