<?xml version="1.0" encoding="UTF-8" standalone="no"?>
<!-- Created with Inkscape (http://www.inkscape.org/) -->

<svg
   xmlns:dc="http://purl.org/dc/elements/1.1/"
   xmlns:cc="http://creativecommons.org/ns#"
   xmlns:rdf="http://www.w3.org/1999/02/22-rdf-syntax-ns#"
   xmlns:svg="http://www.w3.org/2000/svg"
   xmlns="http://www.w3.org/2000/svg"
   xmlns:sodipodi="http://sodipodi.sourceforge.net/DTD/sodipodi-0.dtd"
   xmlns:inkscape="http://www.inkscape.org/namespaces/inkscape"
   id="svg2"
   version="1.1"
   inkscape:version="0.91 r13725"
   xml:space="preserve"
   width="20"
   height="20"
   viewBox="0 0 20 20"
   sodipodi:docname="HeretoCareer_Trending_icon.svg"
   inkscape:export-filename="/home/tobias/Downloads/ginkgo/ccc/trending32.png"
   inkscape:export-xdpi="7.7199998"
   inkscape:export-ydpi="7.7199998"><metadata
     id="metadata8"><rdf:RDF><cc:Work
         rdf:about=""><dc:format>image/svg+xml</dc:format><dc:type
           rdf:resource="http://purl.org/dc/dcmitype/StillImage" /><dc:title></dc:title></cc:Work></rdf:RDF></metadata><defs
     id="defs6" /><sodipodi:namedview
     pagecolor="#ffffff"
     bordercolor="#666666"
     borderopacity="1"
     objecttolerance="10"
     gridtolerance="10"
     guidetolerance="10"
     inkscape:pageopacity="0"
     inkscape:pageshadow="2"
     inkscape:window-width="1855"
     inkscape:window-height="1056"
     id="namedview4"
     showgrid="false"
     inkscape:zoom="28.622533"
     inkscape:cx="9.6773039"
     inkscape:cy="10.698782"
     inkscape:window-x="65"
     inkscape:window-y="24"
     inkscape:window-maximized="1"
     inkscape:current-layer="g10"
     fit-margin-top="0"
     fit-margin-left="0"
     fit-margin-right="0"
     fit-margin-bottom="0"><inkscape:grid
       type="xygrid"
       id="grid4143"
       originx="0"
       originy="-1.2207031e-05" /></sodipodi:namedview><g
     id="g10"
     inkscape:groupmode="layer"
     inkscape:label="ink_ext_XXXXXX"
     transform="matrix(1.25,0,0,-1.25,0,20)"><path
       inkscape:connector-curvature="0"
       id="path14"
       style="fill:#efad15;fill-opacity:1;fill-rule:nonzero;stroke:none"
       d="M 8.568303,15.9812 C 3.8946676,16.297062 0,12.59124 0,8.0011322 0,7.6642051 0.02105963,7.3483964 0.06315816,7.0325876 0.08421731,6.8641241 0.29473005,6.7799191 0.42104584,6.9062534 L 1.1999794,7.6852698 c 0.042101,0.042129 0.063157,0.1052696 0.063157,0.1684635 0,0.042129 0,0.1052696 0,0.1473989 0,3.8742318 3.2841741,6.9904578 7.2209214,6.7167248 3.3262912,-0.231603 5.9999502,-2.926698 6.2315172,-6.2324526 0.27369,-3.937415 -2.842096,-7.2221103 -6.7157126,-7.2221103 -2.6104752,0 -4.8630692,1.4949514 -5.9788516,3.6636819 L 4.5894063,7.4957952 7.3682915,4.7164475 c 0.084245,-0.08421 0.2105593,-0.08421 0.2947509,0 l 3.9578086,3.9584315 0,-1.2001484 c 0,-0.1263342 0.08424,-0.2105392 0.210559,-0.2105392 l 0.842077,0 c 0.126314,0 0.210506,0.084205 0.210506,0.2105392 l 0,3.1372914 c 0,0.126334 -0.08419,0.210539 -0.210506,0.210539 l -3.1367932,0 c -0.1263142,0 -0.2105057,-0.08421 -0.2105057,-0.210539 l 0,-0.8422106 c 0,-0.1263343 0.084192,-0.2105928 0.2105057,-0.2105928 l 1.2000112,0 -3.1999768,-3.2004314 -2.7789066,2.779353 c -0.084197,0.084205 -0.2105111,0.084205 -0.2947295,0 L 0.63158162,5.3059841 C 0.56841917,5.242833 0.54736323,5.1585852 0.58945903,5.0743749 1.7262813,2.1055633 4.6315021,0 7.9998624,0 12.610357,0 16.315537,3.8953072 15.978717,8.5696094 15.705027,12.507035 12.50505,15.70752 8.568303,15.9812" /></g></svg>